<svg viewBox="0 0 500 500" xmlns="http://www.w3.org/2000/svg"><defs><clipPath id="a"><path d="M0 0h500v500H0Z"/></clipPath></defs><g clip-path="url(#a)"><path fill="#64748B" d="M121.99 0h255.97c67.37 0 121.99 54.61 121.99 121.99v255.97c0 67.37-54.62 121.99-121.99 121.99H121.98C54.6 499.95-.01 445.33-.01 377.96V121.98C-.01 54.6 54.6-.01 121.98-.01Z"/><g fill="#FFF"><path d="M205.2 379.11c1.78.13 3.43-1.26 3.71-3.18 0-.69-.14-1.38-.42-1.93 -6.47-12.93-10.18-26.95-11-41.25 -.14-1.65-1.375-3.03-3.03-3.3 -30.39-2.75-59.54-13.2-84.563-30.53h-.14c-1.52-1.24-3.72-1.1-4.95.41 -.55.55-.83 1.37-.83 2.06v23.51c0 26.12 43.03 47.71 100.65 53.48l.55.7Z"/><path d="M110.05 237.487h-.14c-1.52-1.24-3.72-1.1-4.95.41 -.55.55-.83 1.37-.83 2.06v23.51c0 24.33 37.53 44.96 89.7 52.25 1.78.13 3.57-1.1 3.85-3.03 0-.14 0-.14 0-.14 1.51-13.62 5.5-26.69 11.96-38.63 .82-1.79.13-3.85-1.52-4.68 -.42-.28-.97-.42-1.375-.42 -38.92-3.58-75.77-14.44-97.35-31.9l.63.53Z"/><path d="M307.225 215.62h-.02c14.85 0 29.7 3.02 43.45 9.07 1.23.41 2.61.26 3.71-.71 6.6-5.64 10.72-13.62 11.13-22.28v-23.78c0-1.93-1.67-3.44-3.46-3.44 -.83-.14-1.65.13-2.2.68 -26.68 21.58-76.87 33-125.02 33 -48.27 0-98.4-11.55-125.03-33.28 -1.52-1.24-3.72-1.1-4.95.41 -.55.55-.83 1.37-.83 2.06v23.51c0 28.18 50.46 51.42 115.5 54.64 .96 0 2.06-.55 2.75-1.24 20.76-25.17 51.83-39.738 84.53-39.738l.39 1.04Z"/><path d="M235.135 85c-34.65 0-67.87 5.79-92.37 16.1 -24.5 10.31-38.26 24.3-38.26 38.89 0 14.58 13.76 28.57 38.25 38.89 24.49 10.31 57.72 16.1 92.36 16.1s67.86-5.8 92.36-16.11c24.49-10.32 38.25-24.31 38.25-38.9s-13.77-28.58-38.26-38.9c-24.5-10.32-57.73-16.11-92.37-16.11Z"/><path d="M307.22 236.25c-49.37 0-89.38 40.01-89.38 89.375 0 49.22 40.012 89.375 89.37 89.375 49.22 0 89.37-40.15 89.37-89.375 -.14-49.37-40.15-89.39-89.38-89.39v.01Zm44.96 71.5l-39.875 53.21c-3.72 4.81-9.22 7.83-15.125 8.25 -.55 0-1.1 0-1.65 0 -5.5-.14-10.73-2.36-14.58-6.21l-20.625-20.625c-3.99-4.125-3.85-10.74.13-14.73s10.31-3.99 14.3 0l17.87 17.87c.68.68 1.65.96 2.75.96 .96-.14 1.78-.69 2.47-1.38l37.4-50.05c3.3-4.68 9.762-5.52 14.43-2.22 4.53 3.3 5.36 9.76 2.06 14.43 -.14 0-.14 0-.14 0l.55.45Z"/></g></g></svg>